<?xml version="1.0" standalone="no"?>
<!DOCTYPE svg PUBLIC "-//W3C//DTD SVG 20010904//EN"
 "http://www.w3.org/TR/2001/REC-SVG-20010904/DTD/svg10.dtd">
<svg version="1.0" xmlns="http://www.w3.org/2000/svg"
 width="512.000000pt" height="512.000000pt" viewBox="0 0 512.000000 512.000000"
 preserveAspectRatio="xMidYMid meet">

<g transform="translate(0.000000,512.000000) scale(0.100000,-0.100000)"
fill="#000000" stroke="none">
<path d="M2445 5084 c-633 -37 -1194 -282 -1639 -714 -501 -487 -768 -1118
-768 -1810 0 -502 139 -966 416 -1390 188 -287 481 -572 774 -753 194 -120
420 -221 633 -282 238 -69 445 -98 699 -98 404 0 763 85 1122 264 245 122 433
256 632 449 501 487 768 1118 768 1810 0 502 -139 966 -416 1390 -188 287
-481 572 -774 753 -320 198 -688 326 -1052 366 -113 12 -311 20 -395 15z m331
-1189 c495 -87 893 -471 1005 -972 22 -96 23 -116 26 -906 3 -603 1 -807 -7
-807 -19 0 -760 241 -814 264 l-50 22 -83 -22 c-344 -92 -704 -31 -1003 169
-98 65 -253 221 -320 321 -223 334 -278 746 -148 1114 149 423 518 735 963
816 109 19 321 20 431 1z"/>
<path d="M2365 3459 c-388 -95 -655 -457 -632 -854 22 -358 253 -649 593 -747
104 -30 314 -33 414 -5 85 23 196 77 243 119 l39 33 -98 130 c-53 72 -99 132
-100 134 -2 2 -34 -10 -71 -27 -96 -44 -152 -55 -243 -50 -236 14 -425 240
-407 488 19 273 267 472 536 430 163 -26 308 -144 367 -300 14 -37 19 -97 24
-325 8 -308 16 -361 73 -468 17 -32 49 -74 71 -94 40 -35 187 -113 213 -113
10 0 13 91 13 476 0 401 -3 486 -16 546 -71 312 -310 555 -618 628 -110 27
-290 26 -401 -1z"/>
</g>
</svg>
